<mxfile host="app.diagrams.net" modified="2023-08-10T06:00:27.241Z" agent="Mozilla/5.0 (Windows NT 10.0; Win64; x64) AppleWebKit/537.36 (KHTML, like Gecko) Chrome/115.0.0.0 Safari/537.36" etag="Z6gfp3KH-SEUzYnBihE4" version="21.3.6" type="device">
  <diagram id="C5RBs43oDa-KdzZeNtuy" name="Page-1">
    <mxGraphModel dx="1078" dy="531" grid="1" gridSize="10" guides="1" tooltips="1" connect="1" arrows="1" fold="1" page="1" pageScale="1" pageWidth="827" pageHeight="1169" math="0" shadow="0">
      <root>
        <mxCell id="WIyWlLk6GJQsqaUBKTNV-0" />
        <mxCell id="WIyWlLk6GJQsqaUBKTNV-1" parent="WIyWlLk6GJQsqaUBKTNV-0" />
        <mxCell id="pL8ATIALUUYp6KVzmLYF-34" style="edgeStyle=none;shape=connector;curved=1;rounded=0;orthogonalLoop=1;jettySize=auto;html=1;exitX=0.5;exitY=1;exitDx=0;exitDy=0;entryX=0.5;entryY=0;entryDx=0;entryDy=0;labelBackgroundColor=default;strokeColor=default;fontFamily=Helvetica;fontSize=11;fontColor=default;endArrow=open;sourcePerimeterSpacing=8;targetPerimeterSpacing=8;" edge="1" parent="WIyWlLk6GJQsqaUBKTNV-1" source="pL8ATIALUUYp6KVzmLYF-1" target="pL8ATIALUUYp6KVzmLYF-2">
          <mxGeometry relative="1" as="geometry" />
        </mxCell>
        <mxCell id="pL8ATIALUUYp6KVzmLYF-1" value="Start" style="ellipse;whiteSpace=wrap;html=1;" vertex="1" parent="WIyWlLk6GJQsqaUBKTNV-1">
          <mxGeometry x="370" y="20" width="80" height="30" as="geometry" />
        </mxCell>
        <mxCell id="pL8ATIALUUYp6KVzmLYF-35" style="edgeStyle=none;shape=connector;curved=1;rounded=0;orthogonalLoop=1;jettySize=auto;html=1;exitX=0.5;exitY=1;exitDx=0;exitDy=0;entryX=0.5;entryY=0;entryDx=0;entryDy=0;labelBackgroundColor=default;strokeColor=default;fontFamily=Helvetica;fontSize=11;fontColor=default;endArrow=open;sourcePerimeterSpacing=8;targetPerimeterSpacing=8;" edge="1" parent="WIyWlLk6GJQsqaUBKTNV-1" source="pL8ATIALUUYp6KVzmLYF-2" target="pL8ATIALUUYp6KVzmLYF-3">
          <mxGeometry relative="1" as="geometry" />
        </mxCell>
        <mxCell id="pL8ATIALUUYp6KVzmLYF-2" value="Home Page" style="rounded=0;whiteSpace=wrap;html=1;" vertex="1" parent="WIyWlLk6GJQsqaUBKTNV-1">
          <mxGeometry x="362.5" y="80" width="95" height="20" as="geometry" />
        </mxCell>
        <mxCell id="pL8ATIALUUYp6KVzmLYF-36" style="edgeStyle=none;shape=connector;curved=1;rounded=0;orthogonalLoop=1;jettySize=auto;html=1;exitX=0.5;exitY=1;exitDx=0;exitDy=0;entryX=0.5;entryY=0;entryDx=0;entryDy=0;labelBackgroundColor=default;strokeColor=default;fontFamily=Helvetica;fontSize=11;fontColor=default;endArrow=open;sourcePerimeterSpacing=8;targetPerimeterSpacing=8;" edge="1" parent="WIyWlLk6GJQsqaUBKTNV-1" source="pL8ATIALUUYp6KVzmLYF-3" target="pL8ATIALUUYp6KVzmLYF-6">
          <mxGeometry relative="1" as="geometry" />
        </mxCell>
        <mxCell id="pL8ATIALUUYp6KVzmLYF-37" style="edgeStyle=orthogonalEdgeStyle;shape=connector;rounded=0;orthogonalLoop=1;jettySize=auto;html=1;exitX=0.5;exitY=1;exitDx=0;exitDy=0;entryX=0.5;entryY=0;entryDx=0;entryDy=0;labelBackgroundColor=default;strokeColor=default;fontFamily=Helvetica;fontSize=11;fontColor=default;endArrow=open;sourcePerimeterSpacing=8;targetPerimeterSpacing=8;" edge="1" parent="WIyWlLk6GJQsqaUBKTNV-1" source="pL8ATIALUUYp6KVzmLYF-3" target="pL8ATIALUUYp6KVzmLYF-5">
          <mxGeometry relative="1" as="geometry">
            <Array as="points">
              <mxPoint x="410" y="160" />
              <mxPoint x="260" y="160" />
            </Array>
          </mxGeometry>
        </mxCell>
        <mxCell id="pL8ATIALUUYp6KVzmLYF-38" style="edgeStyle=orthogonalEdgeStyle;shape=connector;rounded=0;orthogonalLoop=1;jettySize=auto;html=1;exitX=0.5;exitY=1;exitDx=0;exitDy=0;entryX=0.466;entryY=-0.036;entryDx=0;entryDy=0;entryPerimeter=0;labelBackgroundColor=default;strokeColor=default;fontFamily=Helvetica;fontSize=11;fontColor=default;endArrow=open;sourcePerimeterSpacing=8;targetPerimeterSpacing=8;" edge="1" parent="WIyWlLk6GJQsqaUBKTNV-1" source="pL8ATIALUUYp6KVzmLYF-3" target="pL8ATIALUUYp6KVzmLYF-4">
          <mxGeometry relative="1" as="geometry">
            <Array as="points">
              <mxPoint x="410" y="160" />
              <mxPoint x="107" y="160" />
            </Array>
          </mxGeometry>
        </mxCell>
        <mxCell id="pL8ATIALUUYp6KVzmLYF-39" style="edgeStyle=orthogonalEdgeStyle;shape=connector;rounded=0;orthogonalLoop=1;jettySize=auto;html=1;exitX=0.5;exitY=1;exitDx=0;exitDy=0;entryX=0.5;entryY=0;entryDx=0;entryDy=0;labelBackgroundColor=default;strokeColor=default;fontFamily=Helvetica;fontSize=11;fontColor=default;endArrow=open;sourcePerimeterSpacing=8;targetPerimeterSpacing=8;" edge="1" parent="WIyWlLk6GJQsqaUBKTNV-1" source="pL8ATIALUUYp6KVzmLYF-3" target="pL8ATIALUUYp6KVzmLYF-7">
          <mxGeometry relative="1" as="geometry">
            <Array as="points">
              <mxPoint x="410" y="160" />
              <mxPoint x="560" y="160" />
            </Array>
          </mxGeometry>
        </mxCell>
        <mxCell id="pL8ATIALUUYp6KVzmLYF-40" style="edgeStyle=orthogonalEdgeStyle;shape=connector;rounded=0;orthogonalLoop=1;jettySize=auto;html=1;exitX=0.5;exitY=1;exitDx=0;exitDy=0;entryX=0.5;entryY=0;entryDx=0;entryDy=0;labelBackgroundColor=default;strokeColor=default;fontFamily=Helvetica;fontSize=11;fontColor=default;endArrow=open;sourcePerimeterSpacing=8;targetPerimeterSpacing=8;" edge="1" parent="WIyWlLk6GJQsqaUBKTNV-1" source="pL8ATIALUUYp6KVzmLYF-3" target="pL8ATIALUUYp6KVzmLYF-8">
          <mxGeometry relative="1" as="geometry">
            <Array as="points">
              <mxPoint x="410" y="160" />
              <mxPoint x="710" y="160" />
            </Array>
          </mxGeometry>
        </mxCell>
        <mxCell id="pL8ATIALUUYp6KVzmLYF-3" value="Services" style="rounded=0;whiteSpace=wrap;html=1;" vertex="1" parent="WIyWlLk6GJQsqaUBKTNV-1">
          <mxGeometry x="367.5" y="130" width="85" height="20" as="geometry" />
        </mxCell>
        <mxCell id="pL8ATIALUUYp6KVzmLYF-4" value="Introduction" style="rounded=0;whiteSpace=wrap;html=1;" vertex="1" parent="WIyWlLk6GJQsqaUBKTNV-1">
          <mxGeometry x="60" y="180" width="100" height="20" as="geometry" />
        </mxCell>
        <mxCell id="pL8ATIALUUYp6KVzmLYF-25" style="edgeStyle=none;curved=1;rounded=0;orthogonalLoop=1;jettySize=auto;html=1;exitX=0.5;exitY=1;exitDx=0;exitDy=0;entryX=0.5;entryY=0;entryDx=0;entryDy=0;endArrow=open;sourcePerimeterSpacing=8;targetPerimeterSpacing=8;" edge="1" parent="WIyWlLk6GJQsqaUBKTNV-1" source="pL8ATIALUUYp6KVzmLYF-5" target="pL8ATIALUUYp6KVzmLYF-14">
          <mxGeometry relative="1" as="geometry" />
        </mxCell>
        <mxCell id="pL8ATIALUUYp6KVzmLYF-5" value="Recommender" style="rounded=0;whiteSpace=wrap;html=1;" vertex="1" parent="WIyWlLk6GJQsqaUBKTNV-1">
          <mxGeometry x="210" y="180" width="100" height="20" as="geometry" />
        </mxCell>
        <mxCell id="pL8ATIALUUYp6KVzmLYF-76" style="edgeStyle=none;shape=connector;curved=1;rounded=0;orthogonalLoop=1;jettySize=auto;html=1;exitX=0.5;exitY=1;exitDx=0;exitDy=0;entryX=0.5;entryY=0;entryDx=0;entryDy=0;labelBackgroundColor=default;strokeColor=default;fontFamily=Helvetica;fontSize=11;fontColor=default;endArrow=open;sourcePerimeterSpacing=8;targetPerimeterSpacing=8;" edge="1" parent="WIyWlLk6GJQsqaUBKTNV-1" source="pL8ATIALUUYp6KVzmLYF-6" target="pL8ATIALUUYp6KVzmLYF-75">
          <mxGeometry relative="1" as="geometry" />
        </mxCell>
        <mxCell id="pL8ATIALUUYp6KVzmLYF-6" value="Templates" style="rounded=0;whiteSpace=wrap;html=1;" vertex="1" parent="WIyWlLk6GJQsqaUBKTNV-1">
          <mxGeometry x="360" y="180" width="100" height="20" as="geometry" />
        </mxCell>
        <mxCell id="pL8ATIALUUYp6KVzmLYF-80" style="edgeStyle=none;shape=connector;curved=1;rounded=0;orthogonalLoop=1;jettySize=auto;html=1;exitX=0.5;exitY=1;exitDx=0;exitDy=0;entryX=0.5;entryY=0;entryDx=0;entryDy=0;labelBackgroundColor=default;strokeColor=default;fontFamily=Helvetica;fontSize=11;fontColor=default;endArrow=open;sourcePerimeterSpacing=8;targetPerimeterSpacing=8;" edge="1" parent="WIyWlLk6GJQsqaUBKTNV-1" source="pL8ATIALUUYp6KVzmLYF-7" target="pL8ATIALUUYp6KVzmLYF-79">
          <mxGeometry relative="1" as="geometry" />
        </mxCell>
        <mxCell id="pL8ATIALUUYp6KVzmLYF-7" value="Data Collection" style="rounded=0;whiteSpace=wrap;html=1;" vertex="1" parent="WIyWlLk6GJQsqaUBKTNV-1">
          <mxGeometry x="510" y="180" width="100" height="20" as="geometry" />
        </mxCell>
        <mxCell id="pL8ATIALUUYp6KVzmLYF-82" style="edgeStyle=none;shape=connector;curved=1;rounded=0;orthogonalLoop=1;jettySize=auto;html=1;exitX=0.5;exitY=1;exitDx=0;exitDy=0;entryX=0.5;entryY=0;entryDx=0;entryDy=0;labelBackgroundColor=default;strokeColor=default;fontFamily=Helvetica;fontSize=11;fontColor=default;endArrow=open;sourcePerimeterSpacing=8;targetPerimeterSpacing=8;" edge="1" parent="WIyWlLk6GJQsqaUBKTNV-1" source="pL8ATIALUUYp6KVzmLYF-8" target="pL8ATIALUUYp6KVzmLYF-81">
          <mxGeometry relative="1" as="geometry" />
        </mxCell>
        <mxCell id="pL8ATIALUUYp6KVzmLYF-8" value="Tools &amp;amp; Software" style="rounded=0;whiteSpace=wrap;html=1;" vertex="1" parent="WIyWlLk6GJQsqaUBKTNV-1">
          <mxGeometry x="660" y="180" width="100" height="20" as="geometry" />
        </mxCell>
        <mxCell id="pL8ATIALUUYp6KVzmLYF-9" value="&lt;font style=&quot;font-size: 10px;&quot;&gt;Operational Dashboard&lt;/font&gt;" style="rounded=0;whiteSpace=wrap;html=1;" vertex="1" parent="WIyWlLk6GJQsqaUBKTNV-1">
          <mxGeometry x="75" y="220" width="70" height="30" as="geometry" />
        </mxCell>
        <mxCell id="pL8ATIALUUYp6KVzmLYF-11" value="&lt;font style=&quot;font-size: 10px;&quot;&gt;Analytical&lt;br&gt;Dashboard&lt;/font&gt;" style="rounded=0;whiteSpace=wrap;html=1;" vertex="1" parent="WIyWlLk6GJQsqaUBKTNV-1">
          <mxGeometry x="75" y="270" width="70" height="30" as="geometry" />
        </mxCell>
        <mxCell id="pL8ATIALUUYp6KVzmLYF-12" value="&lt;font style=&quot;font-size: 10px;&quot;&gt;Strategic Dashboard&lt;/font&gt;" style="rounded=0;whiteSpace=wrap;html=1;" vertex="1" parent="WIyWlLk6GJQsqaUBKTNV-1">
          <mxGeometry x="75" y="320" width="70" height="30" as="geometry" />
        </mxCell>
        <mxCell id="pL8ATIALUUYp6KVzmLYF-26" style="edgeStyle=none;curved=1;rounded=0;orthogonalLoop=1;jettySize=auto;html=1;exitX=0.5;exitY=1;exitDx=0;exitDy=0;entryX=0.5;entryY=0;entryDx=0;entryDy=0;endArrow=open;sourcePerimeterSpacing=8;targetPerimeterSpacing=8;" edge="1" parent="WIyWlLk6GJQsqaUBKTNV-1" source="pL8ATIALUUYp6KVzmLYF-14" target="pL8ATIALUUYp6KVzmLYF-17">
          <mxGeometry relative="1" as="geometry" />
        </mxCell>
        <mxCell id="pL8ATIALUUYp6KVzmLYF-14" value="&lt;font style=&quot;font-size: 7px;&quot;&gt;Select Input Industry and Position&lt;/font&gt;" style="shape=parallelogram;perimeter=parallelogramPerimeter;whiteSpace=wrap;html=1;fixedSize=1;" vertex="1" parent="WIyWlLk6GJQsqaUBKTNV-1">
          <mxGeometry x="190" y="220" width="140" height="30" as="geometry" />
        </mxCell>
        <mxCell id="pL8ATIALUUYp6KVzmLYF-27" style="edgeStyle=none;curved=1;rounded=0;orthogonalLoop=1;jettySize=auto;html=1;exitX=0.5;exitY=1;exitDx=0;exitDy=0;entryX=0.5;entryY=0;entryDx=0;entryDy=0;endArrow=open;sourcePerimeterSpacing=8;targetPerimeterSpacing=8;" edge="1" parent="WIyWlLk6GJQsqaUBKTNV-1" source="pL8ATIALUUYp6KVzmLYF-17" target="pL8ATIALUUYp6KVzmLYF-18">
          <mxGeometry relative="1" as="geometry" />
        </mxCell>
        <mxCell id="pL8ATIALUUYp6KVzmLYF-17" value="&lt;span style=&quot;font-size: 7px;&quot;&gt;Display type of dashboard &lt;br&gt;and suitable insights&lt;/span&gt;" style="shape=parallelogram;perimeter=parallelogramPerimeter;whiteSpace=wrap;html=1;fixedSize=1;" vertex="1" parent="WIyWlLk6GJQsqaUBKTNV-1">
          <mxGeometry x="190" y="270" width="140" height="40" as="geometry" />
        </mxCell>
        <mxCell id="pL8ATIALUUYp6KVzmLYF-28" style="edgeStyle=none;curved=1;rounded=0;orthogonalLoop=1;jettySize=auto;html=1;exitX=0.5;exitY=1;exitDx=0;exitDy=0;entryX=0.5;entryY=0;entryDx=0;entryDy=0;endArrow=open;sourcePerimeterSpacing=8;targetPerimeterSpacing=8;" edge="1" parent="WIyWlLk6GJQsqaUBKTNV-1" source="pL8ATIALUUYp6KVzmLYF-18" target="pL8ATIALUUYp6KVzmLYF-20">
          <mxGeometry relative="1" as="geometry" />
        </mxCell>
        <mxCell id="pL8ATIALUUYp6KVzmLYF-18" value="&lt;font style=&quot;font-size: 10px;&quot;&gt;Select metrics and click generate Dashboard&lt;/font&gt;" style="rounded=0;whiteSpace=wrap;html=1;" vertex="1" parent="WIyWlLk6GJQsqaUBKTNV-1">
          <mxGeometry x="190" y="330" width="140" height="30" as="geometry" />
        </mxCell>
        <mxCell id="pL8ATIALUUYp6KVzmLYF-29" style="edgeStyle=none;shape=connector;curved=1;rounded=0;orthogonalLoop=1;jettySize=auto;html=1;exitX=0.5;exitY=1;exitDx=0;exitDy=0;entryX=0.5;entryY=0;entryDx=0;entryDy=0;labelBackgroundColor=default;strokeColor=default;fontFamily=Helvetica;fontSize=11;fontColor=default;endArrow=open;sourcePerimeterSpacing=8;targetPerimeterSpacing=8;" edge="1" parent="WIyWlLk6GJQsqaUBKTNV-1" source="pL8ATIALUUYp6KVzmLYF-20" target="pL8ATIALUUYp6KVzmLYF-21">
          <mxGeometry relative="1" as="geometry" />
        </mxCell>
        <mxCell id="pL8ATIALUUYp6KVzmLYF-20" value="&lt;font style=&quot;font-size: 9px;&quot;&gt;Display example dashboard&lt;/font&gt;" style="shape=parallelogram;perimeter=parallelogramPerimeter;whiteSpace=wrap;html=1;fixedSize=1;" vertex="1" parent="WIyWlLk6GJQsqaUBKTNV-1">
          <mxGeometry x="190" y="380" width="140" height="30" as="geometry" />
        </mxCell>
        <mxCell id="pL8ATIALUUYp6KVzmLYF-30" style="edgeStyle=orthogonalEdgeStyle;shape=connector;rounded=0;orthogonalLoop=1;jettySize=auto;html=1;exitX=0.5;exitY=1;exitDx=0;exitDy=0;entryX=0.5;entryY=0;entryDx=0;entryDy=0;labelBackgroundColor=default;strokeColor=default;fontFamily=Helvetica;fontSize=11;fontColor=default;endArrow=open;sourcePerimeterSpacing=8;targetPerimeterSpacing=8;" edge="1" parent="WIyWlLk6GJQsqaUBKTNV-1" source="pL8ATIALUUYp6KVzmLYF-21">
          <mxGeometry relative="1" as="geometry">
            <mxPoint x="177.5" y="470" as="targetPoint" />
            <Array as="points">
              <mxPoint x="260" y="460" />
              <mxPoint x="177" y="460" />
            </Array>
          </mxGeometry>
        </mxCell>
        <mxCell id="pL8ATIALUUYp6KVzmLYF-32" style="edgeStyle=orthogonalEdgeStyle;shape=connector;rounded=0;orthogonalLoop=1;jettySize=auto;html=1;exitX=0.5;exitY=1;exitDx=0;exitDy=0;entryX=0.5;entryY=0;entryDx=0;entryDy=0;labelBackgroundColor=default;strokeColor=default;fontFamily=Helvetica;fontSize=11;fontColor=default;endArrow=open;sourcePerimeterSpacing=8;targetPerimeterSpacing=8;" edge="1" parent="WIyWlLk6GJQsqaUBKTNV-1" source="pL8ATIALUUYp6KVzmLYF-21" target="pL8ATIALUUYp6KVzmLYF-23">
          <mxGeometry relative="1" as="geometry">
            <Array as="points">
              <mxPoint x="260" y="460" />
              <mxPoint x="297" y="460" />
            </Array>
          </mxGeometry>
        </mxCell>
        <mxCell id="pL8ATIALUUYp6KVzmLYF-21" value="&lt;font style=&quot;font-size: 10px;&quot;&gt;Click explore your data&lt;/font&gt;" style="rounded=0;whiteSpace=wrap;html=1;" vertex="1" parent="WIyWlLk6GJQsqaUBKTNV-1">
          <mxGeometry x="200" y="430" width="120" height="20" as="geometry" />
        </mxCell>
        <mxCell id="pL8ATIALUUYp6KVzmLYF-22" value="&lt;font style=&quot;font-size: 9px;&quot;&gt;Select position&lt;/font&gt;" style="shape=parallelogram;perimeter=parallelogramPerimeter;whiteSpace=wrap;html=1;fixedSize=1;" vertex="1" parent="WIyWlLk6GJQsqaUBKTNV-1">
          <mxGeometry x="117.5" y="460" width="120" height="20" as="geometry" />
        </mxCell>
        <mxCell id="pL8ATIALUUYp6KVzmLYF-33" style="edgeStyle=none;shape=connector;curved=1;rounded=0;orthogonalLoop=1;jettySize=auto;html=1;exitX=0.5;exitY=1;exitDx=0;exitDy=0;entryX=0.5;entryY=0;entryDx=0;entryDy=0;labelBackgroundColor=default;strokeColor=default;fontFamily=Helvetica;fontSize=11;fontColor=default;endArrow=open;sourcePerimeterSpacing=8;targetPerimeterSpacing=8;" edge="1" parent="WIyWlLk6GJQsqaUBKTNV-1" source="pL8ATIALUUYp6KVzmLYF-23" target="pL8ATIALUUYp6KVzmLYF-24">
          <mxGeometry relative="1" as="geometry" />
        </mxCell>
        <mxCell id="pL8ATIALUUYp6KVzmLYF-23" value="&lt;font style=&quot;font-size: 9px;&quot;&gt;Upload user&#39;s dataset&lt;/font&gt;" style="shape=parallelogram;perimeter=parallelogramPerimeter;whiteSpace=wrap;html=1;fixedSize=1;" vertex="1" parent="WIyWlLk6GJQsqaUBKTNV-1">
          <mxGeometry x="237.5" y="470" width="120" height="20" as="geometry" />
        </mxCell>
        <mxCell id="pL8ATIALUUYp6KVzmLYF-44" style="edgeStyle=none;shape=connector;curved=1;rounded=0;orthogonalLoop=1;jettySize=auto;html=1;exitX=0.5;exitY=1;exitDx=0;exitDy=0;entryX=0.5;entryY=0;entryDx=0;entryDy=0;labelBackgroundColor=default;strokeColor=default;fontFamily=Helvetica;fontSize=11;fontColor=default;endArrow=open;sourcePerimeterSpacing=8;targetPerimeterSpacing=8;" edge="1" parent="WIyWlLk6GJQsqaUBKTNV-1" source="pL8ATIALUUYp6KVzmLYF-24" target="pL8ATIALUUYp6KVzmLYF-42">
          <mxGeometry relative="1" as="geometry" />
        </mxCell>
        <mxCell id="pL8ATIALUUYp6KVzmLYF-45" style="edgeStyle=orthogonalEdgeStyle;shape=connector;rounded=0;orthogonalLoop=1;jettySize=auto;html=1;exitX=0.5;exitY=1;exitDx=0;exitDy=0;entryX=0.5;entryY=0;entryDx=0;entryDy=0;labelBackgroundColor=default;strokeColor=default;fontFamily=Helvetica;fontSize=11;fontColor=default;endArrow=open;sourcePerimeterSpacing=8;targetPerimeterSpacing=8;" edge="1" parent="WIyWlLk6GJQsqaUBKTNV-1" source="pL8ATIALUUYp6KVzmLYF-24">
          <mxGeometry relative="1" as="geometry">
            <mxPoint x="186.5" y="550" as="targetPoint" />
            <Array as="points">
              <mxPoint x="297" y="540" />
              <mxPoint x="187" y="540" />
            </Array>
          </mxGeometry>
        </mxCell>
        <mxCell id="pL8ATIALUUYp6KVzmLYF-46" style="edgeStyle=orthogonalEdgeStyle;shape=connector;rounded=0;orthogonalLoop=1;jettySize=auto;html=1;exitX=0.5;exitY=1;exitDx=0;exitDy=0;entryX=0.5;entryY=0;entryDx=0;entryDy=0;labelBackgroundColor=default;strokeColor=default;fontFamily=Helvetica;fontSize=11;fontColor=default;endArrow=open;sourcePerimeterSpacing=8;targetPerimeterSpacing=8;" edge="1" parent="WIyWlLk6GJQsqaUBKTNV-1" source="pL8ATIALUUYp6KVzmLYF-24" target="pL8ATIALUUYp6KVzmLYF-43">
          <mxGeometry relative="1" as="geometry">
            <Array as="points">
              <mxPoint x="297" y="540" />
              <mxPoint x="409" y="540" />
            </Array>
          </mxGeometry>
        </mxCell>
        <mxCell id="pL8ATIALUUYp6KVzmLYF-24" value="&lt;font style=&quot;font-size: 9px;&quot;&gt;Preview Dataset in table&lt;/font&gt;" style="rounded=0;whiteSpace=wrap;html=1;" vertex="1" parent="WIyWlLk6GJQsqaUBKTNV-1">
          <mxGeometry x="246.5" y="510" width="102" height="20" as="geometry" />
        </mxCell>
        <mxCell id="pL8ATIALUUYp6KVzmLYF-53" style="edgeStyle=orthogonalEdgeStyle;shape=connector;rounded=0;orthogonalLoop=1;jettySize=auto;html=1;exitX=0.5;exitY=1;exitDx=0;exitDy=0;entryX=0.5;entryY=0;entryDx=0;entryDy=0;labelBackgroundColor=default;strokeColor=default;fontFamily=Helvetica;fontSize=11;fontColor=default;endArrow=open;sourcePerimeterSpacing=8;targetPerimeterSpacing=8;" edge="1" parent="WIyWlLk6GJQsqaUBKTNV-1" target="pL8ATIALUUYp6KVzmLYF-47">
          <mxGeometry relative="1" as="geometry">
            <mxPoint x="186.5" y="570" as="sourcePoint" />
            <Array as="points">
              <mxPoint x="187" y="580" />
              <mxPoint x="297" y="580" />
            </Array>
          </mxGeometry>
        </mxCell>
        <mxCell id="pL8ATIALUUYp6KVzmLYF-41" value="&lt;font style=&quot;font-size: 8px;&quot;&gt;Select Categorical Data&lt;/font&gt;" style="shape=parallelogram;perimeter=parallelogramPerimeter;whiteSpace=wrap;html=1;fixedSize=1;fontFamily=Helvetica;fontSize=11;fontColor=default;" vertex="1" parent="WIyWlLk6GJQsqaUBKTNV-1">
          <mxGeometry x="126.5" y="540" width="120" height="20" as="geometry" />
        </mxCell>
        <mxCell id="pL8ATIALUUYp6KVzmLYF-51" style="edgeStyle=none;shape=connector;curved=1;rounded=0;orthogonalLoop=1;jettySize=auto;html=1;exitX=0.5;exitY=1;exitDx=0;exitDy=0;entryX=0.5;entryY=0;entryDx=0;entryDy=0;labelBackgroundColor=default;strokeColor=default;fontFamily=Helvetica;fontSize=11;fontColor=default;endArrow=open;sourcePerimeterSpacing=8;targetPerimeterSpacing=8;" edge="1" parent="WIyWlLk6GJQsqaUBKTNV-1" source="pL8ATIALUUYp6KVzmLYF-42" target="pL8ATIALUUYp6KVzmLYF-47">
          <mxGeometry relative="1" as="geometry" />
        </mxCell>
        <mxCell id="pL8ATIALUUYp6KVzmLYF-42" value="&lt;font style=&quot;font-size: 8px;&quot;&gt;Select Time Series Data&lt;/font&gt;" style="shape=parallelogram;perimeter=parallelogramPerimeter;whiteSpace=wrap;html=1;fixedSize=1;fontFamily=Helvetica;fontSize=11;fontColor=default;" vertex="1" parent="WIyWlLk6GJQsqaUBKTNV-1">
          <mxGeometry x="237.5" y="550" width="120" height="20" as="geometry" />
        </mxCell>
        <mxCell id="pL8ATIALUUYp6KVzmLYF-52" style="edgeStyle=orthogonalEdgeStyle;shape=connector;rounded=0;orthogonalLoop=1;jettySize=auto;html=1;exitX=0.5;exitY=1;exitDx=0;exitDy=0;entryX=0.5;entryY=0;entryDx=0;entryDy=0;labelBackgroundColor=default;strokeColor=default;fontFamily=Helvetica;fontSize=11;fontColor=default;endArrow=open;sourcePerimeterSpacing=8;targetPerimeterSpacing=8;" edge="1" parent="WIyWlLk6GJQsqaUBKTNV-1" source="pL8ATIALUUYp6KVzmLYF-43" target="pL8ATIALUUYp6KVzmLYF-47">
          <mxGeometry relative="1" as="geometry">
            <Array as="points">
              <mxPoint x="409" y="580" />
              <mxPoint x="297" y="580" />
            </Array>
          </mxGeometry>
        </mxCell>
        <mxCell id="pL8ATIALUUYp6KVzmLYF-43" value="&lt;font style=&quot;font-size: 8px;&quot;&gt;Select Spatial Data&lt;/font&gt;" style="shape=parallelogram;perimeter=parallelogramPerimeter;whiteSpace=wrap;html=1;fixedSize=1;fontFamily=Helvetica;fontSize=11;fontColor=default;" vertex="1" parent="WIyWlLk6GJQsqaUBKTNV-1">
          <mxGeometry x="348.5" y="550" width="120" height="20" as="geometry" />
        </mxCell>
        <mxCell id="pL8ATIALUUYp6KVzmLYF-55" style="edgeStyle=none;shape=connector;curved=1;rounded=0;orthogonalLoop=1;jettySize=auto;html=1;exitX=0.5;exitY=1;exitDx=0;exitDy=0;entryX=0.5;entryY=0;entryDx=0;entryDy=0;labelBackgroundColor=default;strokeColor=default;fontFamily=Helvetica;fontSize=11;fontColor=default;endArrow=open;sourcePerimeterSpacing=8;targetPerimeterSpacing=8;" edge="1" parent="WIyWlLk6GJQsqaUBKTNV-1" source="pL8ATIALUUYp6KVzmLYF-47" target="pL8ATIALUUYp6KVzmLYF-54">
          <mxGeometry relative="1" as="geometry" />
        </mxCell>
        <mxCell id="pL8ATIALUUYp6KVzmLYF-47" value="Display the suitable chart for selected data type" style="shape=parallelogram;perimeter=parallelogramPerimeter;whiteSpace=wrap;html=1;fixedSize=1;fontFamily=Helvetica;fontSize=11;fontColor=default;" vertex="1" parent="WIyWlLk6GJQsqaUBKTNV-1">
          <mxGeometry x="162.5" y="595" width="270" height="25" as="geometry" />
        </mxCell>
        <mxCell id="pL8ATIALUUYp6KVzmLYF-57" style="edgeStyle=none;shape=connector;curved=1;rounded=0;orthogonalLoop=1;jettySize=auto;html=1;exitX=0.5;exitY=1;exitDx=0;exitDy=0;entryX=0.5;entryY=0;entryDx=0;entryDy=0;labelBackgroundColor=default;strokeColor=default;fontFamily=Helvetica;fontSize=11;fontColor=default;endArrow=open;sourcePerimeterSpacing=8;targetPerimeterSpacing=8;" edge="1" parent="WIyWlLk6GJQsqaUBKTNV-1" source="pL8ATIALUUYp6KVzmLYF-54" target="pL8ATIALUUYp6KVzmLYF-56">
          <mxGeometry relative="1" as="geometry" />
        </mxCell>
        <mxCell id="pL8ATIALUUYp6KVzmLYF-54" value="&lt;font style=&quot;font-size: 9px;&quot;&gt;Click Visualize now button&lt;/font&gt;" style="rounded=0;whiteSpace=wrap;html=1;fontFamily=Helvetica;fontSize=11;fontColor=default;" vertex="1" parent="WIyWlLk6GJQsqaUBKTNV-1">
          <mxGeometry x="236.5" y="640" width="122" height="20" as="geometry" />
        </mxCell>
        <mxCell id="pL8ATIALUUYp6KVzmLYF-59" style="edgeStyle=none;shape=connector;curved=1;rounded=0;orthogonalLoop=1;jettySize=auto;html=1;exitX=0.5;exitY=1;exitDx=0;exitDy=0;entryX=0.5;entryY=0;entryDx=0;entryDy=0;labelBackgroundColor=default;strokeColor=default;fontFamily=Helvetica;fontSize=11;fontColor=default;endArrow=open;sourcePerimeterSpacing=8;targetPerimeterSpacing=8;" edge="1" parent="WIyWlLk6GJQsqaUBKTNV-1" source="pL8ATIALUUYp6KVzmLYF-56" target="pL8ATIALUUYp6KVzmLYF-58">
          <mxGeometry relative="1" as="geometry" />
        </mxCell>
        <mxCell id="pL8ATIALUUYp6KVzmLYF-56" value="&lt;font style=&quot;font-size: 9px;&quot;&gt;Select column to be displayed&lt;/font&gt;" style="shape=parallelogram;perimeter=parallelogramPerimeter;whiteSpace=wrap;html=1;fixedSize=1;fontFamily=Helvetica;fontSize=11;fontColor=default;" vertex="1" parent="WIyWlLk6GJQsqaUBKTNV-1">
          <mxGeometry x="216.75" y="680" width="161.5" height="20" as="geometry" />
        </mxCell>
        <mxCell id="pL8ATIALUUYp6KVzmLYF-65" style="edgeStyle=none;shape=connector;curved=1;rounded=0;orthogonalLoop=1;jettySize=auto;html=1;exitX=1;exitY=0.5;exitDx=0;exitDy=0;entryX=0;entryY=0.5;entryDx=0;entryDy=0;labelBackgroundColor=default;strokeColor=default;fontFamily=Helvetica;fontSize=11;fontColor=default;endArrow=open;sourcePerimeterSpacing=8;targetPerimeterSpacing=8;" edge="1" parent="WIyWlLk6GJQsqaUBKTNV-1" source="pL8ATIALUUYp6KVzmLYF-58" target="pL8ATIALUUYp6KVzmLYF-64">
          <mxGeometry relative="1" as="geometry" />
        </mxCell>
        <mxCell id="pL8ATIALUUYp6KVzmLYF-66" style="edgeStyle=none;shape=connector;curved=1;rounded=0;orthogonalLoop=1;jettySize=auto;html=1;exitX=0;exitY=0.5;exitDx=0;exitDy=0;entryX=1;entryY=0.5;entryDx=0;entryDy=0;labelBackgroundColor=default;strokeColor=default;fontFamily=Helvetica;fontSize=11;fontColor=default;endArrow=open;sourcePerimeterSpacing=8;targetPerimeterSpacing=8;" edge="1" parent="WIyWlLk6GJQsqaUBKTNV-1" source="pL8ATIALUUYp6KVzmLYF-58" target="pL8ATIALUUYp6KVzmLYF-63">
          <mxGeometry relative="1" as="geometry" />
        </mxCell>
        <mxCell id="pL8ATIALUUYp6KVzmLYF-70" style="edgeStyle=none;shape=connector;curved=1;rounded=0;orthogonalLoop=1;jettySize=auto;html=1;exitX=0.5;exitY=1;exitDx=0;exitDy=0;entryX=0.5;entryY=0;entryDx=0;entryDy=0;labelBackgroundColor=default;strokeColor=default;fontFamily=Helvetica;fontSize=11;fontColor=default;endArrow=open;sourcePerimeterSpacing=8;targetPerimeterSpacing=8;" edge="1" parent="WIyWlLk6GJQsqaUBKTNV-1" source="pL8ATIALUUYp6KVzmLYF-58" target="pL8ATIALUUYp6KVzmLYF-69">
          <mxGeometry relative="1" as="geometry" />
        </mxCell>
        <mxCell id="pL8ATIALUUYp6KVzmLYF-58" value="&lt;font style=&quot;font-size: 9px;&quot;&gt;System display a few &lt;br&gt;example suitable &lt;br&gt;chart with the user&#39;s dataset&lt;/font&gt;" style="shape=parallelogram;perimeter=parallelogramPerimeter;whiteSpace=wrap;html=1;fixedSize=1;fontFamily=Helvetica;fontSize=11;fontColor=default;" vertex="1" parent="WIyWlLk6GJQsqaUBKTNV-1">
          <mxGeometry x="202.5" y="730" width="190" height="40" as="geometry" />
        </mxCell>
        <mxCell id="pL8ATIALUUYp6KVzmLYF-67" style="edgeStyle=orthogonalEdgeStyle;shape=connector;rounded=0;orthogonalLoop=1;jettySize=auto;html=1;exitX=0;exitY=0.5;exitDx=0;exitDy=0;labelBackgroundColor=default;strokeColor=default;fontFamily=Helvetica;fontSize=11;fontColor=default;endArrow=open;sourcePerimeterSpacing=8;targetPerimeterSpacing=8;" edge="1" parent="WIyWlLk6GJQsqaUBKTNV-1" source="pL8ATIALUUYp6KVzmLYF-63">
          <mxGeometry relative="1" as="geometry">
            <mxPoint x="300" y="540" as="targetPoint" />
            <Array as="points">
              <mxPoint x="60" y="750" />
              <mxPoint x="60" y="540" />
            </Array>
          </mxGeometry>
        </mxCell>
        <mxCell id="pL8ATIALUUYp6KVzmLYF-63" value="Click select another data type" style="rounded=0;whiteSpace=wrap;html=1;fontFamily=Helvetica;fontSize=11;fontColor=default;" vertex="1" parent="WIyWlLk6GJQsqaUBKTNV-1">
          <mxGeometry x="80" y="730" width="100" height="40" as="geometry" />
        </mxCell>
        <mxCell id="pL8ATIALUUYp6KVzmLYF-68" style="edgeStyle=orthogonalEdgeStyle;shape=connector;rounded=0;orthogonalLoop=1;jettySize=auto;html=1;exitX=0.5;exitY=0;exitDx=0;exitDy=0;entryX=1;entryY=0.5;entryDx=0;entryDy=0;labelBackgroundColor=default;strokeColor=default;fontFamily=Helvetica;fontSize=11;fontColor=default;endArrow=open;sourcePerimeterSpacing=8;targetPerimeterSpacing=8;" edge="1" parent="WIyWlLk6GJQsqaUBKTNV-1" source="pL8ATIALUUYp6KVzmLYF-64" target="pL8ATIALUUYp6KVzmLYF-56">
          <mxGeometry relative="1" as="geometry">
            <Array as="points">
              <mxPoint x="463" y="690" />
            </Array>
          </mxGeometry>
        </mxCell>
        <mxCell id="pL8ATIALUUYp6KVzmLYF-64" value="Click select another column" style="rounded=0;whiteSpace=wrap;html=1;fontFamily=Helvetica;fontSize=11;fontColor=default;" vertex="1" parent="WIyWlLk6GJQsqaUBKTNV-1">
          <mxGeometry x="413.5" y="730" width="100" height="40" as="geometry" />
        </mxCell>
        <mxCell id="pL8ATIALUUYp6KVzmLYF-72" style="edgeStyle=none;shape=connector;curved=1;rounded=0;orthogonalLoop=1;jettySize=auto;html=1;exitX=0.5;exitY=1;exitDx=0;exitDy=0;entryX=0.5;entryY=0;entryDx=0;entryDy=0;labelBackgroundColor=default;strokeColor=default;fontFamily=Helvetica;fontSize=11;fontColor=default;endArrow=open;sourcePerimeterSpacing=8;targetPerimeterSpacing=8;" edge="1" parent="WIyWlLk6GJQsqaUBKTNV-1" source="pL8ATIALUUYp6KVzmLYF-69">
          <mxGeometry relative="1" as="geometry">
            <mxPoint x="297.5" y="860" as="targetPoint" />
          </mxGeometry>
        </mxCell>
        <mxCell id="pL8ATIALUUYp6KVzmLYF-69" value="Click display dashboard" style="rounded=0;whiteSpace=wrap;html=1;fontFamily=Helvetica;fontSize=11;fontColor=default;" vertex="1" parent="WIyWlLk6GJQsqaUBKTNV-1">
          <mxGeometry x="247.5" y="790" width="100" height="40" as="geometry" />
        </mxCell>
        <mxCell id="pL8ATIALUUYp6KVzmLYF-74" style="edgeStyle=none;shape=connector;curved=1;rounded=0;orthogonalLoop=1;jettySize=auto;html=1;exitX=0.5;exitY=1;exitDx=0;exitDy=0;entryX=0.5;entryY=0;entryDx=0;entryDy=0;labelBackgroundColor=default;strokeColor=default;fontFamily=Helvetica;fontSize=11;fontColor=default;endArrow=open;sourcePerimeterSpacing=8;targetPerimeterSpacing=8;" edge="1" parent="WIyWlLk6GJQsqaUBKTNV-1" target="pL8ATIALUUYp6KVzmLYF-73">
          <mxGeometry relative="1" as="geometry">
            <mxPoint x="297.5" y="900" as="sourcePoint" />
          </mxGeometry>
        </mxCell>
        <mxCell id="pL8ATIALUUYp6KVzmLYF-71" value="&lt;font style=&quot;font-size: 9px;&quot;&gt;User select the desired column &lt;br&gt;and chart to be display in the dashboard. &lt;br&gt;There are 5 chart to be select in this page/form&lt;/font&gt;" style="shape=parallelogram;perimeter=parallelogramPerimeter;whiteSpace=wrap;html=1;fixedSize=1;fontFamily=Helvetica;fontSize=11;fontColor=default;" vertex="1" parent="WIyWlLk6GJQsqaUBKTNV-1">
          <mxGeometry x="132.5" y="850" width="330" height="40" as="geometry" />
        </mxCell>
        <mxCell id="pL8ATIALUUYp6KVzmLYF-73" value="&lt;font style=&quot;font-size: 9px;&quot;&gt;Display dashboard with the selected &lt;br&gt;chart and column from the user with the data analytics dashboard rules applied&lt;/font&gt;" style="shape=parallelogram;perimeter=parallelogramPerimeter;whiteSpace=wrap;html=1;fixedSize=1;fontFamily=Helvetica;fontSize=11;fontColor=default;" vertex="1" parent="WIyWlLk6GJQsqaUBKTNV-1">
          <mxGeometry x="172.5" y="920" width="250" height="60" as="geometry" />
        </mxCell>
        <mxCell id="pL8ATIALUUYp6KVzmLYF-78" style="edgeStyle=none;shape=connector;curved=1;rounded=0;orthogonalLoop=1;jettySize=auto;html=1;exitX=0.5;exitY=1;exitDx=0;exitDy=0;entryX=0.5;entryY=0;entryDx=0;entryDy=0;labelBackgroundColor=default;strokeColor=default;fontFamily=Helvetica;fontSize=11;fontColor=default;endArrow=open;sourcePerimeterSpacing=8;targetPerimeterSpacing=8;" edge="1" parent="WIyWlLk6GJQsqaUBKTNV-1" source="pL8ATIALUUYp6KVzmLYF-75" target="pL8ATIALUUYp6KVzmLYF-77">
          <mxGeometry relative="1" as="geometry" />
        </mxCell>
        <mxCell id="pL8ATIALUUYp6KVzmLYF-75" value="&lt;div style=&quot;&quot;&gt;&lt;span style=&quot;font-size: 7px; background-color: initial;&quot;&gt;Select Input Industry and dashboard&amp;nbsp;&lt;/span&gt;&lt;/div&gt;&lt;font style=&quot;font-size: 7px;&quot;&gt;&lt;div style=&quot;&quot;&gt;&lt;span style=&quot;background-color: initial;&quot;&gt;type&lt;/span&gt;&lt;/div&gt;&lt;/font&gt;" style="shape=parallelogram;perimeter=parallelogramPerimeter;whiteSpace=wrap;html=1;fixedSize=1;align=center;" vertex="1" parent="WIyWlLk6GJQsqaUBKTNV-1">
          <mxGeometry x="335" y="220" width="150" height="30" as="geometry" />
        </mxCell>
        <mxCell id="pL8ATIALUUYp6KVzmLYF-77" value="&lt;font style=&quot;&quot;&gt;&lt;font style=&quot;font-size: 8px;&quot;&gt;Display a few dashboard example&lt;br&gt;&amp;nbsp;from the internet for &lt;br&gt;user to gain some ideas&lt;/font&gt;&lt;br&gt;&lt;/font&gt;" style="shape=parallelogram;perimeter=parallelogramPerimeter;whiteSpace=wrap;html=1;fixedSize=1;fontFamily=Helvetica;fontSize=11;fontColor=default;" vertex="1" parent="WIyWlLk6GJQsqaUBKTNV-1">
          <mxGeometry x="335" y="270" width="150" height="50" as="geometry" />
        </mxCell>
        <mxCell id="pL8ATIALUUYp6KVzmLYF-79" value="Dr Choo&#39;s Link" style="rounded=0;whiteSpace=wrap;html=1;fontFamily=Helvetica;fontSize=11;fontColor=default;" vertex="1" parent="WIyWlLk6GJQsqaUBKTNV-1">
          <mxGeometry x="500" y="220" width="120" height="30" as="geometry" />
        </mxCell>
        <mxCell id="pL8ATIALUUYp6KVzmLYF-81" value="&lt;font style=&quot;font-size: 7px;&quot;&gt;Display the tools &amp;amp; software analysis developed by Dr Yogan&#39;s team&lt;/font&gt;" style="rounded=0;whiteSpace=wrap;html=1;fontFamily=Helvetica;fontSize=11;fontColor=default;" vertex="1" parent="WIyWlLk6GJQsqaUBKTNV-1">
          <mxGeometry x="650" y="220" width="120" height="30" as="geometry" />
        </mxCell>
      </root>
    </mxGraphModel>
  </diagram>
</mxfile>
